<svg width="917" height="783" xmlns="http://www.w3.org/2000/svg"><g><path d="M-138.9044119673781,-62.51576355891302L-130.53339772624895,474.32164683472365L-125.93258319422603,383.59889507992193Z" fill="#cafae0" stroke="#cafae0"></path><path d="M-138.9044119673781,-62.51576355891302L-125.93258319422603,383.59889507992193L-116.93781583337113,62.44366200873628Z" fill="#f6ffdc" stroke="#f6ffdc"></path><path d="M-138.9044119673781,-62.51576355891302L-116.93781583337113,62.44366200873628L142.9750151396729,-85.86868222802877Z" fill="#ffffe6" stroke="#ffffe6"></path><path d="M142.9750151396729,-85.86868222802877L-116.93781583337113,62.44366200873628L126.37069888180122,69.88093143329024Z" fill="#f5fcda" stroke="#f5fcda"></path><path d="M142.9750151396729,-85.86868222802877L126.37069888180122,69.88093143329024L196.5696297492832,-74.26677463110536Z" fill="#e3f4d7" stroke="#e3f4d7"></path><path d="M142.9750151396729,-85.86868222802877L196.5696297492832,-74.26677463110536L366.1941633676179,-98.46458718413487Z" fill="#d0eddc" stroke="#d0eddc"></path><path d="M196.5696297492832,-74.26677463110536L126.37069888180122,69.88093143329024L279.97975115664303,54.9473160575144Z" fill="#d7f0d3" stroke="#d7f0d3"></path><path d="M196.5696297492832,-74.26677463110536L279.97975115664303,54.9473160575144L366.1941633676179,-98.46458718413487Z" fill="#c5e9db" stroke="#c5e9db"></path><path d="M366.1941633676179,-98.46458718413487L279.97975115664303,54.9473160575144L416.7528741643764,29.539655758999288Z" fill="#b5e3d9" stroke="#b5e3d9"></path><path d="M366.1941633676179,-98.46458718413487L416.7528741643764,29.539655758999288L555.5886607477441,-60.57771048974246Z" fill="#a3dce0" stroke="#a3dce0"></path><path d="M366.1941633676179,-98.46458718413487L555.5886607477441,-60.57771048974246L713.2940765051171,-56.59012371208519Z" fill="#9acbde" stroke="#9acbde"></path><path d="M366.1941633676179,-98.46458718413487L713.2940765051171,-56.59012371208519L1100.030220625922,-107.781171745155Z" fill="#93a3ce" stroke="#93a3ce"></path><path d="M555.5886607477441,-60.57771048974246L416.7528741643764,29.539655758999288L586.5061331726611,38.34790377179161Z" fill="#9cd0d9" stroke="#9cd0d9"></path><path d="M555.5886607477441,-60.57771048974246L586.5061331726611,38.34790377179161L615.0456852698699,-21.71836360823363Z" fill="#98c4d8" stroke="#98c4d8"></path><path d="M555.5886607477441,-60.57771048974246L615.0456852698699,-21.71836360823363L713.2940765051171,-56.59012371208519Z" fill="#95bbd9" stroke="#95bbd9"></path><path d="M615.0456852698699,-21.71836360823363L586.5061331726611,38.34790377179161L758.7042872025631,40.9057682310231Z" fill="#93b5cf" stroke="#93b5cf"></path><path d="M615.0456852698699,-21.71836360823363L758.7042872025631,40.9057682310231L713.2940765051171,-56.59012371208519Z" fill="#94abcd" stroke="#94abcd"></path><path d="M713.2940765051171,-56.59012371208519L758.7042872025631,40.9057682310231L866.4402462798171,-3.5335515695624053Z" fill="#9296c2" stroke="#9296c2"></path><path d="M713.2940765051171,-56.59012371208519L866.4402462798171,-3.5335515695624053L967.6200528070331,-28.600004320032895Z" fill="#9085bd" stroke="#9085bd"></path><path d="M713.2940765051171,-56.59012371208519L967.6200528070331,-28.600004320032895L1100.030220625922,-107.781171745155Z" fill="#8f80b7" stroke="#8f80b7"></path><path d="M967.6200528070331,-28.600004320032895L866.4402462798171,-3.5335515695624053L1050.856151233893,112.42626284249127Z" fill="#8c80a9" stroke="#8c80a9"></path><path d="M967.6200528070331,-28.600004320032895L1050.856151233893,112.42626284249127L1100.030220625922,-107.781171745155Z" fill="#8c80a4" stroke="#8c80a4"></path><path d="M1100.030220625922,-107.781171745155L1050.856151233893,112.42626284249127L1108.048673684243,398.04941883776337Z" fill="#818090" stroke="#818090"></path><path d="M-116.93781583337113,62.44366200873628L-125.93258319422603,383.59889507992193L-7.011544860433787,277.60446986882016Z" fill="#d2fbdc" stroke="#d2fbdc"></path><path d="M-116.93781583337113,62.44366200873628L-7.011544860433787,277.60446986882016L9.670024428050965,172.07334824139252Z" fill="#e9fed6" stroke="#e9fed6"></path><path d="M-116.93781583337113,62.44366200873628L9.670024428050965,172.07334824139252L126.37069888180122,69.88093143329024Z" fill="#f7ffd4" stroke="#f7ffd4"></path><path d="M126.37069888180122,69.88093143329024L9.670024428050965,172.07334824139252L155.58322022203356,172.94873161241412Z" fill="#e2f8ca" stroke="#e2f8ca"></path><path d="M126.37069888180122,69.88093143329024L155.58322022203356,172.94873161241412L279.97975115664303,54.9473160575144Z" fill="#d4f1ca" stroke="#d4f1ca"></path><path d="M279.97975115664303,54.9473160575144L155.58322022203356,172.94873161241412L415.6609028344974,163.55920046567917Z" fill="#bbe8c9" stroke="#bbe8c9"></path><path d="M279.97975115664303,54.9473160575144L415.6609028344974,163.55920046567917L416.7528741643764,29.539655758999288Z" fill="#ade1d0" stroke="#ade1d0"></path><path d="M416.7528741643764,29.539655758999288L415.6609028344974,163.55920046567917L437.0010839984752,151.19445163523778Z" fill="#9fddce" stroke="#9fddce"></path><path d="M416.7528741643764,29.539655758999288L437.0010839984752,151.19445163523778L522.3150904849172,144.9029101105407Z" fill="#99dbd0" stroke="#99dbd0"></path><path d="M416.7528741643764,29.539655758999288L522.3150904849172,144.9029101105407L586.5061331726611,38.34790377179161Z" fill="#98d2d2" stroke="#98d2d2"></path><path d="M522.3150904849172,144.9029101105407L437.0010839984752,151.19445163523778L551.0317405662499,354.6812421409413Z" fill="#78cfce" stroke="#78cfce"></path><path d="M522.3150904849172,144.9029101105407L551.0317405662499,354.6812421409413L662.9487012466416,164.91747917840257Z" fill="#71c2cc" stroke="#71c2cc"></path><path d="M522.3150904849172,144.9029101105407L662.9487012466416,164.91747917840257L586.5061331726611,38.34790377179161Z" fill="#8fc3ca" stroke="#8fc3ca"></path><path d="M586.5061331726611,38.34790377179161L662.9487012466416,164.91747917840257L758.7042872025631,40.9057682310231Z" fill="#8fb1c6" stroke="#8fb1c6"></path><path d="M758.7042872025631,40.9057682310231L662.9487012466416,164.91747917840257L801.0857340344228,174.353452809155Z" fill="#8a9fb9" stroke="#8a9fb9"></path><path d="M758.7042872025631,40.9057682310231L801.0857340344228,174.353452809155L866.4402462798171,-3.5335515695624053Z" fill="#8c8fb7" stroke="#8c8fb7"></path><path d="M866.4402462798171,-3.5335515695624053L801.0857340344228,174.353452809155L1050.856151233893,112.42626284249127Z" fill="#8880a9" stroke="#8880a9"></path><path d="M1050.856151233893,112.42626284249127L801.0857340344228,174.353452809155L837.3548203287646,240.61162229860201Z" fill="#777ea8" stroke="#777ea8"></path><path d="M1050.856151233893,112.42626284249127L837.3548203287646,240.61162229860201L1049.1856493172236,200.2540398412384Z" fill="#727e9e" stroke="#727e9e"></path><path d="M1050.856151233893,112.42626284249127L1049.1856493172236,200.2540398412384L1108.048673684243,398.04941883776337Z" fill="#5f7c95" stroke="#5f7c95"></path><path d="M-7.011544860433787,277.60446986882016L-125.93258319422603,383.59889507992193L53.61601680517197,365.2866104617715Z" fill="#b4f2db" stroke="#b4f2db"></path><path d="M-7.011544860433787,277.60446986882016L53.61601680517197,365.2866104617715L155.58322022203356,172.94873161241412Z" fill="#bcf4d1" stroke="#bcf4d1"></path><path d="M-7.011544860433787,277.60446986882016L155.58322022203356,172.94873161241412L9.670024428050965,172.07334824139252Z" fill="#d3f8d0" stroke="#d3f8d0"></path><path d="M155.58322022203356,172.94873161241412L53.61601680517197,365.2866104617715L181.29102393519133,419.0243716328405Z" fill="#a3ebce" stroke="#a3ebce"></path><path d="M155.58322022203356,172.94873161241412L181.29102393519133,419.0243716328405L224.19690675102174,415.0039297877811Z" fill="#92e4ce" stroke="#92e4ce"></path><path d="M155.58322022203356,172.94873161241412L224.19690675102174,415.0039297877811L314.48154508834705,378.93228124594316Z" fill="#8be2ce" stroke="#8be2ce"></path><path d="M155.58322022203356,172.94873161241412L314.48154508834705,378.93228124594316L415.6609028344974,163.55920046567917Z" fill="#95e3cd" stroke="#95e3cd"></path><path d="M415.6609028344974,163.55920046567917L314.48154508834705,378.93228124594316L551.0317405662499,354.6812421409413Z" fill="#68d4d2" stroke="#68d4d2"></path><path d="M415.6609028344974,163.55920046567917L551.0317405662499,354.6812421409413L437.0010839984752,151.19445163523778Z" fill="#78d6d0" stroke="#78d6d0"></path><path d="M662.9487012466416,164.91747917840257L551.0317405662499,354.6812421409413L697.1451022499241,308.69731650454924Z" fill="#5db2c9" stroke="#5db2c9"></path><path d="M662.9487012466416,164.91747917840257L697.1451022499241,308.69731650454924L801.0857340344228,174.353452809155Z" fill="#6ea1bd" stroke="#6ea1bd"></path><path d="M801.0857340344228,174.353452809155L697.1451022499241,308.69731650454924L837.3548203287646,240.61162229860201Z" fill="#6492b8" stroke="#6492b8"></path><path d="M837.3548203287646,240.61162229860201L697.1451022499241,308.69731650454924L843.5475432686508,311.91470734775066Z" fill="#568bb7" stroke="#568bb7"></path><path d="M837.3548203287646,240.61162229860201L843.5475432686508,311.91470734775066L1049.1856493172236,200.2540398412384Z" fill="#5e7ba8" stroke="#5e7ba8"></path><path d="M1049.1856493172236,200.2540398412384L843.5475432686508,311.91470734775066L926.6119968751445,426.8249090737663Z" fill="#4c75a7" stroke="#4c75a7"></path><path d="M1049.1856493172236,200.2540398412384L926.6119968751445,426.8249090737663L1108.048673684243,398.04941883776337Z" fill="#41729e" stroke="#41729e"></path><path d="M-125.93258319422603,383.59889507992193L-130.53339772624895,474.32164683472365L53.61601680517197,365.2866104617715Z" fill="#a5e8e0" stroke="#a5e8e0"></path><path d="M53.61601680517197,365.2866104617715L-130.53339772624895,474.32164683472365L82.5263617024757,465.15784949064255Z" fill="#a2e1d9" stroke="#a2e1d9"></path><path d="M53.61601680517197,365.2866104617715L82.5263617024757,465.15784949064255L181.29102393519133,419.0243716328405Z" fill="#90ded1" stroke="#90ded1"></path><path d="M224.19690675102174,415.0039297877811L181.29102393519133,419.0243716328405L313.7574755353853,464.7662850073539Z" fill="#72cfcf" stroke="#72cfcf"></path><path d="M224.19690675102174,415.0039297877811L313.7574755353853,464.7662850073539L314.48154508834705,378.93228124594316Z" fill="#69ced1" stroke="#69ced1"></path><path d="M314.48154508834705,378.93228124594316L313.7574755353853,464.7662850073539L495.8595255948603,472.23541327752173Z" fill="#54c2d2" stroke="#54c2d2"></path><path d="M314.48154508834705,378.93228124594316L495.8595255948603,472.23541327752173L551.0317405662499,354.6812421409413Z" fill="#47c6d7" stroke="#47c6d7"></path><path d="M551.0317405662499,354.6812421409413L495.8595255948603,472.23541327752173L617.9352225456387,512.0572792110033Z" fill="#3ba8d0" stroke="#3ba8d0"></path><path d="M551.0317405662499,354.6812421409413L617.9352225456387,512.0572792110033L711.3479472976178,338.39095374569297Z" fill="#3ba6cf" stroke="#3ba6cf"></path><path d="M551.0317405662499,354.6812421409413L711.3479472976178,338.39095374569297L697.1451022499241,308.69731650454924Z" fill="#4ca8ca" stroke="#4ca8ca"></path><path d="M697.1451022499241,308.69731650454924L711.3479472976178,338.39095374569297L843.5475432686508,311.91470734775066Z" fill="#4e92be" stroke="#4e92be"></path><path d="M711.3479472976178,338.39095374569297L617.9352225456387,512.0572792110033L749.5442451955751,497.9229294322431Z" fill="#358ac4" stroke="#358ac4"></path><path d="M711.3479472976178,338.39095374569297L749.5442451955751,497.9229294322431L843.5475432686508,311.91470734775066Z" fill="#3c87be" stroke="#3c87be"></path><path d="M843.5475432686508,311.91470734775066L749.5442451955751,497.9229294322431L926.6119968751445,426.8249090737663Z" fill="#366fb5" stroke="#366fb5"></path><path d="M1108.048673684243,398.04941883776337L926.6119968751445,426.8249090737663L1061.1468533053994,474.1209564823657Z" fill="#2f629d" stroke="#2f629d"></path><path d="M1108.048673684243,398.04941883776337L1061.1468533053994,474.1209564823657L1098.6355017288588,758.221164047718Z" fill="#25448e" stroke="#25448e"></path><path d="M-130.53339772624895,474.32164683472365L-117.9632674367167,641.5877563250251L82.5263617024757,465.15784949064255Z" fill="#9acad7" stroke="#9acad7"></path><path d="M82.5263617024757,465.15784949064255L-117.9632674367167,641.5877563250251L117.8786776540801,708.8177901273593Z" fill="#92adc4" stroke="#92adc4"></path><path d="M82.5263617024757,465.15784949064255L117.8786776540801,708.8177901273593L138.48859717138112,691.0617283266038Z" fill="#82a1ba" stroke="#82a1ba"></path><path d="M82.5263617024757,465.15784949064255L138.48859717138112,691.0617283266038L169.41769334021956,694.0779792331159Z" fill="#7fa1ba" stroke="#7fa1ba"></path><path d="M82.5263617024757,465.15784949064255L169.41769334021956,694.0779792331159L181.29102393519133,419.0243716328405Z" fill="#7fbfc8" stroke="#7fbfc8"></path><path d="M181.29102393519133,419.0243716328405L169.41769334021956,694.0779792331159L313.7574755353853,464.7662850073539Z" fill="#6eb8c9" stroke="#6eb8c9"></path><path d="M313.7574755353853,464.7662850073539L169.41769334021956,694.0779792331159L352.48289469163865,555.5366589641199Z" fill="#5fa4c3" stroke="#5fa4c3"></path><path d="M313.7574755353853,464.7662850073539L352.48289469163865,555.5366589641199L495.8595255948603,472.23541327752173Z" fill="#4cb2cf" stroke="#4cb2cf"></path><path d="M495.8595255948603,472.23541327752173L352.48289469163865,555.5366589641199L473.3223185152747,661.7372793098912Z" fill="#3d9ac8" stroke="#3d9ac8"></path><path d="M495.8595255948603,472.23541327752173L473.3223185152747,661.7372793098912L617.9352225456387,512.0572792110033Z" fill="#3591c8" stroke="#3591c8"></path><path d="M617.9352225456387,512.0572792110033L473.3223185152747,661.7372793098912L671.992703138385,555.120670243632Z" fill="#307dc2" stroke="#307dc2"></path><path d="M617.9352225456387,512.0572792110033L671.992703138385,555.120670243632L749.5442451955751,497.9229294322431Z" fill="#2f7ac2" stroke="#2f7ac2"></path><path d="M749.5442451955751,497.9229294322431L671.992703138385,555.120670243632L802.447633065749,571.0738014033996Z" fill="#2d65b7" stroke="#2d65b7"></path><path d="M749.5442451955751,497.9229294322431L802.447633065749,571.0738014033996L926.6119968751445,426.8249090737663Z" fill="#2d5db2" stroke="#2d5db2"></path><path d="M926.6119968751445,426.8249090737663L802.447633065749,571.0738014033996L850.1239346596412,587.8623125329614Z" fill="#2b4cab" stroke="#2b4cab"></path><path d="M926.6119968751445,426.8249090737663L850.1239346596412,587.8623125329614L1061.1468533053994,474.1209564823657Z" fill="#2b52a4" stroke="#2b52a4"></path><path d="M1061.1468533053994,474.1209564823657L850.1239346596412,587.8623125329614L990.3249705210328,673.0172385298647Z" fill="#273996" stroke="#273996"></path><path d="M1061.1468533053994,474.1209564823657L990.3249705210328,673.0172385298647L1098.6355017288588,758.221164047718Z" fill="#232584" stroke="#232584"></path><path d="M-117.9632674367167,641.5877563250251L-51.48198638809845,880.3728199354373L-33.405944767873734,778.2674006465822Z" fill="#9280b1" stroke="#9280b1"></path><path d="M-117.9632674367167,641.5877563250251L-33.405944767873734,778.2674006465822L117.8786776540801,708.8177901273593Z" fill="#948bb6" stroke="#948bb6"></path><path d="M138.48859717138112,691.0617283266038L117.8786776540801,708.8177901273593L169.41769334021956,694.0779792331159Z" fill="#7a85ac" stroke="#7a85ac"></path><path d="M169.41769334021956,694.0779792331159L117.8786776540801,708.8177901273593L208.202820494771,750.520046595484Z" fill="#757ca8" stroke="#757ca8"></path><path d="M169.41769334021956,694.0779792331159L208.202820494771,750.520046595484L359.9384911125526,733.4565813466907Z" fill="#6172a8" stroke="#6172a8"></path><path d="M169.41769334021956,694.0779792331159L359.9384911125526,733.4565813466907L352.48289469163865,555.5366589641199Z" fill="#5884b4" stroke="#5884b4"></path><path d="M352.48289469163865,555.5366589641199L359.9384911125526,733.4565813466907L473.3223185152747,661.7372793098912Z" fill="#4480b9" stroke="#4480b9"></path><path d="M473.3223185152747,661.7372793098912L359.9384911125526,733.4565813466907L516.6154544078745,805.285018873401Z" fill="#365fac" stroke="#365fac"></path><path d="M473.3223185152747,661.7372793098912L516.6154544078745,805.285018873401L560.6086066877469,743.5177425551228Z" fill="#3053aa" stroke="#3053aa"></path><path d="M473.3223185152747,661.7372793098912L560.6086066877469,743.5177425551228L671.992703138385,555.120670243632Z" fill="#2f66b6" stroke="#2f66b6"></path><path d="M671.992703138385,555.120670243632L560.6086066877469,743.5177425551228L730.9440673142672,805.9955274849199Z" fill="#2a44a7" stroke="#2a44a7"></path><path d="M671.992703138385,555.120670243632L730.9440673142672,805.9955274849199L802.447633065749,571.0738014033996Z" fill="#2a43a7" stroke="#2a43a7"></path><path d="M802.447633065749,571.0738014033996L730.9440673142672,805.9955274849199L850.1239346596412,587.8623125329614Z" fill="#28319e" stroke="#28319e"></path><path d="M850.1239346596412,587.8623125329614L730.9440673142672,805.9955274849199L887.6066572871059,799.062411445193Z" fill="#25108e" stroke="#25108e"></path><path d="M850.1239346596412,587.8623125329614L887.6066572871059,799.062411445193L990.3249705210328,673.0172385298647Z" fill="#24148c" stroke="#24148c"></path><path d="M990.3249705210328,673.0172385298647L887.6066572871059,799.062411445193L1098.6355017288588,758.221164047718Z" fill="#210078" stroke="#210078"></path><path d="M-33.405944767873734,778.2674006465822L-51.48198638809845,880.3728199354373L141.0749036958441,866.2700106296688Z" fill="#8c7e9e" stroke="#8c7e9e"></path><path d="M-33.405944767873734,778.2674006465822L141.0749036958441,866.2700106296688L117.8786776540801,708.8177901273593Z" fill="#847aa3" stroke="#847aa3"></path><path d="M117.8786776540801,708.8177901273593L141.0749036958441,866.2700106296688L208.202820494771,750.520046595484Z" fill="#75749e" stroke="#75749e"></path><path d="M208.202820494771,750.520046595484L141.0749036958441,866.2700106296688L320.4166455892846,907.1524070599116Z" fill="#636e95" stroke="#636e95"></path><path d="M208.202820494771,750.520046595484L320.4166455892846,907.1524070599116L359.9384911125526,733.4565813466907Z" fill="#53689e" stroke="#53689e"></path><path d="M359.9384911125526,733.4565813466907L320.4166455892846,907.1524070599116L482.3073112498969,911.0714061907493Z" fill="#3f6198" stroke="#3f6198"></path><path d="M359.9384911125526,733.4565813466907L482.3073112498969,911.0714061907493L516.6154544078745,805.285018873401Z" fill="#335c9f" stroke="#335c9f"></path><path d="M516.6154544078745,805.285018873401L482.3073112498969,911.0714061907493L572.2017130767927,910.3998833126388Z" fill="#2b5093" stroke="#2b5093"></path><path d="M516.6154544078745,805.285018873401L572.2017130767927,910.3998833126388L560.6086066877469,743.5177425551228Z" fill="#2b4b9b" stroke="#2b4b9b"></path><path d="M560.6086066877469,743.5177425551228L572.2017130767927,910.3998833126388L730.9440673142672,805.9955274849199Z" fill="#273d98" stroke="#273d98"></path><path d="M730.9440673142672,805.9955274849199L572.2017130767927,910.3998833126388L702.0989894331433,950.9398628282361Z" fill="#233287" stroke="#233287"></path><path d="M730.9440673142672,805.9955274849199L702.0989894331433,950.9398628282361L918.4927607909776,857.8001658571884Z" fill="#22157c" stroke="#22157c"></path><path d="M730.9440673142672,805.9955274849199L918.4927607909776,857.8001658571884L887.6066572871059,799.062411445193Z" fill="#22067d" stroke="#22067d"></path><path d="M887.6066572871059,799.062411445193L918.4927607909776,857.8001658571884L1098.6355017288588,758.221164047718Z" fill="#200071" stroke="#200071"></path><path d="M1098.6355017288588,758.221164047718L918.4927607909776,857.8001658571884L1052.94021719601,917.8322998946533Z" fill="#1d0064" stroke="#1d0064"></path><path d="M-51.48198638809845,880.3728199354373L39.85881344880909,947.953304045368L141.0749036958441,866.2700106296688Z" fill="#867d92" stroke="#867d92"></path><path d="M39.85881344880909,947.953304045368L702.0989894331433,950.9398628282361L320.4166455892846,907.1524070599116Z" fill="#436389" stroke="#436389"></path><path d="M39.85881344880909,947.953304045368L320.4166455892846,907.1524070599116L141.0749036958441,866.2700106296688Z" fill="#6e7389" stroke="#6e7389"></path><path d="M320.4166455892846,907.1524070599116L702.0989894331433,950.9398628282361L482.3073112498969,911.0714061907493Z" fill="#2b538c" stroke="#2b538c"></path><path d="M482.3073112498969,911.0714061907493L702.0989894331433,950.9398628282361L572.2017130767927,910.3998833126388Z" fill="#264488" stroke="#264488"></path><path d="M702.0989894331433,950.9398628282361L1052.94021719601,917.8322998946533L918.4927607909776,857.8001658571884Z" fill="#1e0069" stroke="#1e0069"></path></g></svg>